<?xml version="1.0" encoding="UTF-8"?>
<svg width="645px" height="270px" viewBox="0 0 645 270" version="1.1" xmlns="http://www.w3.org/2000/svg" xmlns:xlink="http://www.w3.org/1999/xlink">
    <!-- Generator: Sketch 50.2 (55047) - http://www.bohemiancoding.com/sketch -->
    <title>Header image -Recoloured</title>
    <desc>Created with Sketch.</desc>
    <defs>
        <path d="M20.5275,0.263136187 L20.9295,10.9014163 L9.5715,37.7246615 L12.7395,42.5338911 L11.6235,43.8105447 C9.1995,44.5975642 6.648,44.0838988 6.648,44.0838988 L0.372,36.7228638 L20.5275,0.263136187 Z" id="path-1"></path>
        <path d="M6.312,0.0543657588 C2.6025,0.0543657588 -0.1005,3.57342412 0.852,7.16307393 L11.0745,45.733035 C11.391,46.9225759 12.0765,47.9318833 12.9825,48.6678366 L48.1965,0.0543657588 L6.312,0.0543657588 Z" id="path-3"></path>
        <polygon id="path-5" points="0 56.7180742 27 57 25.862665 0"></polygon>
        <polygon id="path-7" points="0.261 0.0633774319 347.046 31.7994864 347.046 0.0633774319"></polygon>
    </defs>
    <g id="Industry" stroke="none" stroke-width="1" fill="none" fill-rule="evenodd">
        <g id="Header-image--Recoloured">
            <g id="Group-53">
                <g id="Group-96">
                    <path d="M15.0279719,132 C15.0279719,132 5.30797188,174.988685 20.6979719,204.188008 L36.0894719,233.388833 C36.0894719,233.388833 40.1394719,160.388272 15.0279719,132" id="Fill-12" fill="#C1DDF7"></path>
                    <path d="M20.3235775,258.975078 C22.0605775,262.092116 23.9050296,265.564755 25.8569336,269.392996 L47.6096191,269.392996 C50.4389247,264.909907 52.2580775,261.584458 53.0670775,259.41665 C55.1205775,253.913522 56.6790775,248.225654 57.7185775,242.443164 C58.3185775,239.107343 58.7055775,235.487654 57.1485775,232.476253 C55.0410775,228.396969 50.1015775,226.753841 45.5730775,226.014884 C38.0490775,224.78479 27.6885775,224.155475 20.4795775,227.22395 C14.1840775,229.903421 14.5650775,237.955351 15.5850775,243.710806 C16.5210775,248.982635 17.7180775,254.299522 20.3235775,258.975078 Z" id="Fill-14" fill="#F2F8FE"></path>
                    <path d="M32.1130503,233.65713 C38.0830503,234.005582 44.5540503,233.089395 48.3130503,231.061768 C49.0645503,230.657745 49.7335503,230.13657 49.3780503,229.640928 C48.9580503,229.055169 47.3680503,228.811854 45.9820503,228.669169 C38.8045503,227.92871 30.8560503,227.592274 23.8300503,228.786321 C13.5370503,230.533084 26.6500503,233.337216 32.1130503,233.65713" id="Fill-16" fill="#214A81"></path>
                    <path d="M29.0352663,121 C29.0352663,121 24.1752663,202.922117 35.5152663,232.93249 C35.5152663,232.93249 42.8067663,159.933432 29.0352663,121" id="Fill-18" fill="#71ADDB"></path>
                    <path d="M34.3974486,232.269315 L37.0284486,232.269315 C40.8999486,216.051307 52.4829486,163.519261 46.3614486,139 C46.3614486,139 26.9199486,207.946809 31.7799486,223.35677 C32.9664486,227.400008 33.8034486,230.249198 34.3974486,232.269315" id="Fill-20" fill="#C1DDF7"></path>
                    <path d="M601.4643,130.782311 C601.4643,130.782311 591.7428,173.770995 607.1343,202.970318 L622.5258,232.172645 C622.5258,232.172645 626.5758,159.170583 601.4643,130.782311" id="Fill-22" fill="#C1DDF7"></path>
                    <path d="M606.85905,258.27736 C608.59605,261.394397 610.820646,265.099609 613.532837,269.392996 L634.073364,269.392996 C636.950488,264.444761 638.79355,260.88674 639.60255,258.718932 C641.65605,253.215803 643.21455,247.527935 644.25405,241.746947 C644.85255,238.409624 645.24105,234.789935 643.68555,231.778535 C641.57655,227.699251 636.63705,226.056122 632.10855,225.317165 C624.58605,224.087072 614.22255,223.459258 607.01505,226.526231 C600.71955,229.205702 601.09905,237.257632 602.12055,243.013087 C603.05655,248.284916 604.25505,253.603305 606.85905,258.27736 Z" id="Fill-24" fill="#F2F8FE"></path>
                    <path d="M619.1859,232.311725 C625.1559,232.660177 631.6269,231.745492 635.3859,229.716363 C636.1389,229.31234 636.8064,228.791165 636.4524,228.295523 C636.0309,227.709764 634.4424,227.466449 633.0549,227.325266 C625.8774,226.583305 617.9289,226.246869 610.9044,227.440916 C600.6099,229.187679 613.7229,231.991811 619.1859,232.311725" id="Fill-26" fill="#214A81"></path>
                    <path d="M616.04535,120.237902 C616.04535,120.237902 611.18535,202.160019 622.52535,232.171894 C622.52535,232.171894 629.81685,159.171334 616.04535,120.237902" id="Fill-28" fill="#71ADDB"></path>
                    <path d="M621.09315,231.572468 L623.72415,231.572468 C627.59565,215.35446 639.17865,162.823915 633.05715,138.303153 C633.05715,138.303153 613.61565,207.249962 618.47565,222.659923 C619.66215,226.70316 620.49915,229.552351 621.09315,231.572468" id="Fill-30" fill="#C1DDF7"></path>
                    <path d="M109.9593,43.4572918 L136.6023,47.7843969 L123.9258,36.1938833 L129.9858,29.4261167 L153.0288,50.0628482 C156.2058,53.404677 153.9393,58.9348405 149.3343,59.0790272 L117.0513,60.0883346 L109.9593,43.4572918 Z" id="Fill-47" fill="#FFD673"></path>
                    <path d="M121.55455,116.641043 L121.55455,266.980791 L112.40455,267.63564 L103.019525,148.850278 C102.914923,147.526345 101.756868,146.537882 100.432935,146.642484 C100.21509,146.659695 100.000607,146.706521 99.7954102,146.781668 L88.87255,266.327445 L79.72255,265.672597 L79.87755,108.679126 L121.55455,116.641043 Z" id="Fill-49" fill="#0E2C58"></path>
                    <path d="M109.9593,43.4572918 L79.1883,42.1611128 C76.0068,42.0274397 72.9423,43.3716809 70.8858,45.8033307 L79.8768,116.354218 L121.9323,117.201315 L118.0923,52.5350506 C118.0923,52.5350506 111.0783,43.5053541 109.9593,43.4572918" id="Fill-51" fill="#FFD673"></path>
                    <path d="M123.82335,29.9433868 C122.13435,31.2861261 119.98185,32.529737 119.64285,34.6640016 C119.34885,36.5083907 120.70635,38.3482739 122.44935,39.0166397 C124.19385,39.6835035 126.18585,39.3620872 127.88835,38.5990988 C130.63485,37.3705074 132.89985,34.8787798 133.40535,31.9094335 C133.77585,29.7331144 132.80535,25.5501961 130.28235,24.7872078 C127.41885,23.9235891 125.89635,28.2972545 123.82335,29.9433868" id="Fill-53" fill="#FFFFFF"></path>
                    <path d="M21.1686,44.0035494 L18.3471,39.1988257 L21.4506,32.6984054 C21.4506,32.6984054 23.1441,28.1760475 23.1441,26.7642187 C23.1441,25.3508879 21.7326,23.3728257 20.3226,25.9156195 C18.9111,28.4599152 17.4996,30.4379774 17.4996,30.4379774 L9.1311,18.0033704 C8.8926,17.6489113 8.4951,17.437137 8.0691,17.437137 C7.1001,17.437137 6.4821,18.4719774 6.9411,19.3265844 L8.8566,22.8937051 C9.4926,24.0787401 8.1096,25.3193471 7.0026,24.5563588 L6.6186,24.2920163 C4.5111,22.841137 1.6311,23.3472926 0.1446,25.4304911 L0.0006,25.6332537 L0.1401,29.8612304 C0.2316,32.572242 1.4796,35.1120319 3.5736,36.8332615 C8.5131,40.8945222 17.2971,48.0032304 17.4996,47.3949424 C17.7816,46.5463432 21.1686,44.0035494 21.1686,44.0035494" id="Fill-57" fill="#FFBDA1"></path>
                    <path d="M116.64855,16.249849 C115.49205,15.6776078 113.98755,16.2318257 113.26305,17.2997089 C112.53855,18.3675922 112.51155,19.8004482 112.94055,21.0170241 C113.74305,23.2879658 116.21205,24.8995533 118.58955,24.5420903 C120.96855,24.1861292 122.89605,21.7619891 122.54505,19.3799035 C122.29305,17.6721914 120.98355,16.2153043 119.37555,15.588993 C117.76905,14.9626817 115.92105,15.1098724 114.33405,15.7872498" id="Fill-59" fill="#FFBDA1"></path>
                    <path d="M116.03775,18.9252646 L129.88425,29.8173735 C129.88425,29.8173735 130.21275,35.75907 126.91725,36.4199261 C125.92725,37.0792802 113.07075,23.546751 113.07075,23.546751 L116.03775,18.9252646 Z" id="Fill-61" fill="#FFBDA1"></path>
                    <path d="M89.5248,28.5566405 L90.2313,47.7530062 C90.2313,49.9803914 91.8498,51.8758467 94.0473,52.2242981 C96.5568,52.6223136 98.9013,50.8695432 99.2358,48.3477767 L100.2078,31.7482747 L89.5248,28.5566405 Z" id="Fill-65" fill="#FFBDA1"></path>
                    <polygon id="Fill-67" fill="#524F63" points="113.129 33.1218039 103.4075 31.3104576 107.2205 10.7878739 116.942 12.5992202"></polygon>
                    <polygon id="Fill-69" fill="#0E2C58" points="113.05095 32.9215946 104.40645 31.3115089 108.21945 10.7889253 116.86395 12.3975089"></polygon>
                    <path d="M88.41375,44.9364078 C88.41375,44.9364078 87.01125,46.1394661 86.91075,46.5419875 C86.81025,46.943007 92.32125,55.571684 92.32125,55.571684 L96.02925,49.6525167 L100.63725,55.571684 L102.54225,44.8357774 L99.43575,44.1328669 L95.92875,48.1475673 L89.71575,43.1295673 L88.41375,44.9364078 Z" id="Fill-71" fill="#FFFFFF"></path>
                    <polygon id="Fill-73" fill="#84B4FE" points="96.02865 49.6520661 93.72465 53.4640039 95.32815 56.3747743 94.42515 58.5811323 95.32815 86.8747821 98.53365 90.4854591 101.43915 87.0760428 98.43465 58.4805019 96.73065 56.1735136 98.83515 53.2642451"></polygon>
                    <path d="M81.5319,8.02294241 C79.5879,12.5227712 79.8039,17.6804521 80.8269,22.4746623 C81.9384,27.6834093 84.1179,32.9101798 88.2384,36.2790436 C92.3604,39.6479074 98.7534,40.6046467 102.9999,37.3964911 C105.5289,35.4845144 106.9569,32.4550903 107.9184,29.4316739 C109.8324,23.417884 110.2224,16.6996817 107.7294,10.902172 C103.1574,0.272903502 86.9919,-4.60841946 81.5319,8.02294241" id="Fill-75" fill="#FFBDA1"></path>
                    <polygon id="Fill-77" fill="#FFD673" points="74.65365 66.0788444 41.61915 76.7561751 17.61165 50.5682529 23.59365 45.6193424 45.72465 63.7868755 70.88565 45.8040817 75.17415 53.3168132"></polygon>
                    <polygon id="Fill-79" fill="#FFFFFF" points="13.83045 48.8079728 16.36995 52.7640973 27.66045 46.265179 23.14395 41.742821"></polygon>
                    <path d="M75.8775,16.5461829 C74.451,17.1724942 73.7505,18.8982296 73.9095,20.4497393 C74.0655,22.001249 74.9145,23.3950545 75.8685,24.6266498 C76.398,25.310035 76.9785,25.9738949 77.7135,26.4289844 C78.426,26.8690545 79.254,27.0928444 80.085,27.2024864 C81.105,27.3391634 82.3065,27.2310233 82.9035,26.3914358 C83.2185,25.9483619 83.298,25.3851323 83.3625,24.8459339 C83.6745,22.2881206 83.016,21.2743074 81.537,19.4224086 C80.1825,17.7222062 78.402,15.4347432 75.8775,16.5461829" id="Fill-81" fill="#FFBDA1"></path>
                    <path d="M85.3251,16.719207 C85.1121,19.3896661 83.8506,22.1217051 81.5106,23.419386 C79.7646,21.1799852 78.8436,18.3758529 78.5331,15.5506934 C78.1491,12.060172 78.7176,8.35186848 80.7546,5.49366615 C83.0796,2.23144047 87.0921,0.447129183 91.0836,0.157253696 C95.0751,-0.13262179 99.0576,0.92474786 102.7611,2.44621868 C104.3661,3.10557276 106.4241,3.77544047 107.6481,2.54384514 C108.2871,3.74840545 108.6291,5.11067004 108.6351,6.47593852 C108.6396,7.52279455 108.4356,8.59968949 107.8566,9.47231984 C106.8771,10.9427245 105.2901,12.5858529 103.5666,12.970351 C90.5361,15.8856272 84.4806,8.80395409 84.4206,8.999207 C84.2076,9.69761167 84.6261,10.5672381 84.7866,11.2761564 C85.1931,13.0589658 85.4721,14.8868335 85.3251,16.719207" id="Fill-83" fill="#072042"></path>
                    <path d="M277.0086,149.087103 L273.3081,76.8810716 C273.3081,76.8810716 254.7666,75.7696319 249.2496,75.7696319 C246.2451,75.7696319 241.1091,77.1979821 237.0561,78.497165 C233.2491,79.7197486 230.0856,79.6116086 228.2346,83.1622078 L197.8281,141.517297 L216.5106,143.298605 L222.7386,136.171873 L219.5706,131.362644 L230.9301,104.539398 L230.7456,149.979258 L277.0086,149.087103 Z" id="Fill-85" fill="#FFD474"></path>
                    <g id="Group-89" transform="translate(210.000000, 93.638132)">
                        <mask id="mask-2" fill="white">
                            <use xlink:href="#path-1"></use>
                        </mask>
                        <g id="Clip-88"></g>
                        <path d="M20.5275,0.263136187 L0.372,36.7228638 L6.648,44.0838988 C6.648,44.0838988 9.1995,44.5975642 11.6235,43.8105447 L12.7395,42.5338911 L9.5715,37.7246615 L20.9295,10.9014163 L20.5275,0.263136187 Z" id="Fill-87" fill="#F7C869" mask="url(#mask-2)"></path>
                    </g>
                    <path d="M246.5985,134.488643 C245.8185,134.227304 239.577,130.582082 234.897,130.582082 C230.217,130.582082 224.496,135.529491 224.496,135.529491 C224.496,135.529491 223.716,138.133865 226.836,137.612689 C229.956,137.091514 232.0365,136.831678 232.0365,136.831678 C232.0365,136.831678 226.575,139.695888 230.217,140.215561 C233.856,140.736736 249.1995,140.215561 249.1995,140.215561 L246.5985,134.488643 Z" id="Fill-90" fill="#FFBDA1"></path>
                    <path d="M245.4486,145.079912 L185.3736,145.079912 L185.3736,140.668698 L245.4486,140.668698 C246.6651,140.668698 247.6506,141.656978 247.6506,142.875056 C247.6506,144.093134 246.6651,145.079912 245.4486,145.079912" id="Fill-92" fill="#5B61D3"></path>
                    <path d="M228.9669,145.079912 L171.0354,145.079912 C168.4734,145.079912 166.2324,143.354177 165.5754,140.872963 L155.3514,102.303002 C154.3989,98.7133518 157.1019,95.1942934 160.8114,95.1942934 L211.3974,95.1942934 C213.9594,95.1942934 216.2004,96.9215307 216.8589,99.3997409 L228.9669,145.079912 Z" id="Fill-94" fill="#84B4FE"></path>
                </g>
                <g id="Group-99" transform="translate(155.000000, 95.000000)">
                    <mask id="mask-4" fill="white">
                        <use xlink:href="#path-3"></use>
                    </mask>
                    <g id="Clip-98"></g>
                    <path d="M6.312,0.0543657588 C2.6025,0.0543657588 -0.1005,3.57342412 0.852,7.16307393 L11.0745,45.733035 C11.391,46.9225759 12.0765,47.9318833 12.9825,48.6678366 L48.1965,0.0543657588 L6.312,0.0543657588 Z" id="Fill-97" fill="#2E4B9C" mask="url(#mask-4)"></path>
                </g>
                <path d="M195.501482,123.555401 C196.135982,126.07116 194.554982,128.110802 191.970482,128.110802 C189.384482,128.110802 186.774482,126.07116 186.139982,123.555401 C185.505482,121.039642 187.087982,119 189.672482,119 C192.256982,119 194.866982,121.039642 195.501482,123.555401" id="Fill-100" fill="#FFFFFF"></path>
                <path d="M248,66.2072451 C248.5205,67.2480934 252.161,81.569144 252.161,81.569144 C252.161,81.569144 253.4615,83.912179 256.5815,83.6523424 C259.7015,83.3910039 261.002,78.9647704 261.002,78.9647704 L255.5405,61 L248,66.2072451 Z" id="Fill-102" fill="#FFD673"></path>
                <path d="M266.6775,57.8626381 C266.6775,67.7274163 256.2165,78.6435564 246.3645,78.6435564 C236.514,78.6435564 231,67.7274163 231,57.8626381 C231,47.9978599 238.9875,40 248.838,40 C258.69,40 266.6775,47.9978599 266.6775,57.8626381" id="Fill-104" fill="#FFBDA1"></path>
                <path d="M251.0805,77.8218599 L249,83.2904436 L250.3005,89.0188638 L254.46,83.0291051 L258.621,89.7983735 L263.3025,81.4670817 L260.181,76 C260.181,76 258.621,79.6437198 255.24,80.4247315 C251.8605,81.2072451 251.0805,77.8218599 251.0805,77.8218599" id="Fill-106" fill="#FFFFFF"></path>
                <polygon id="Fill-108" fill="#84B4FE" points="253.9 83 250.78 86.9050584 252.34 89.2480934 250 94.1955019 250.5205 126.742661 253.6405 133.252093 258.061 125.96165 257.0215 94.9780156 254.68 88.9882568 256.501 86.3838833"></polygon>
                <g id="Group-113" transform="translate(250.000000, 92.000000)">
                    <mask id="mask-6" fill="white">
                        <use xlink:href="#path-5"></use>
                    </mask>
                    <g id="Clip-112"></g>
                    <polygon id="Fill-111" fill="#E9B855" mask="url(#mask-6)" points="0 56.7180742 27 57 25.862665 0"></polygon>
                </g>
                <path d="M273.3605,77 L275.834,130.807198 L251,135.871759 L254.387,142.372179 L289.934,144.44186 L285.0785,91.2219222 C284.579,85.7383191 281.267,80.9080623 276.335,78.4704047 L273.3605,77 Z" id="Fill-114" fill="#FFD474"></path>
                <polygon id="Fill-116" fill="#FFFFFF" points="247 134 251.941 134.521175 256.3615 141.810117 248.053 142.386864"></polygon>
                <path d="M221.953,159 L178,170.195502 L202.358841,261.821566 L211.102493,259.790804 L201.5185,178.687502 L240.8455,166.334 L218.098,179.459502 L218.4835,251.267518 L225.4225,251.267518 C225.4225,251.267518 244.702,181.003502 246.628,181.003502 C248.557,181.003502 280.9435,159.386 280.9435,159.386 L221.953,159 Z" id="Fill-118" fill="#072042"></path>
                <path d="M58,269.185899 L89,269.185899 L89,260 L61.7886639,266.169954 C60.1322355,266.545536 58.7374311,267.655862 58,269.185899 Z" id="Fill-120" fill="#0E2C58"></path>
                <path d="M177,268.740489 L210.869322,268.740489 L210.869322,259 L180.945375,265.719364 C179.25117,266.099794 177.809036,267.204092 177,268.740489 Z" id="Fill-120-Copy-2" fill="#052E47"></path>
                <path d="M112,269.185899 L143,269.185899 L143,260 L115.788664,266.169954 C114.132235,266.545536 112.737431,267.655862 112,269.185899 Z" id="Fill-120-Copy" fill="#0E2C58" transform="translate(127.500000, 264.592949) scale(-1, 1) translate(-127.500000, -264.592949) "></path>
                <polygon id="Fill-122" fill="#052E47" points="201 269.282789 206.91748 269.282789 224.671387 269.282789 225.664357 251 218.725357 251 217.520996 259.162672 203.987305 262.76277"></polygon>
                <path d="M231.070391,51.7924064 C230.372891,53.0750678 229.658891,54.5725075 230.177891,55.9362741 C230.813891,57.6049355 232.885391,58.1140951 234.656891,58.3228655 C237.713891,58.6818305 240.794891,58.8410367 243.872891,58.8004842 C245.914391,58.7719472 247.966391,58.6547955 249.953891,58.1891924 C253.205891,57.426204 256.163891,55.7635503 259.072391,54.1204219 C261.145391,52.9489044 263.440391,51.472492 263.816891,49.1189433 C264.190391,46.78492 262.499891,44.6761885 260.921891,42.9189122 C260.024891,41.9201184 259.120391,40.9138149 258.040391,40.1192857 C255.401891,38.1757682 251.899391,37.6711145 248.665391,38.1922896 C240.632891,39.4884686 234.820391,44.9074881 231.070391,51.7924064" id="Fill-124" fill="#072042"></path>
                <path d="M259.79359,56.8438545 C260.07109,55.9021346 261.24859,55.4140023 262.18009,55.7219012 C263.11009,56.0313019 263.74159,56.967014 263.88709,57.9372708 C264.03409,58.9090296 263.75959,59.9018156 263.33209,60.7849595 C263.12359,61.2160179 262.87609,61.6335588 262.76359,62.0991619 C262.67059,62.4896677 262.67659,62.8966949 262.68259,63.2977144 C262.71109,65.0429751 262.73959,66.7882358 262.76809,68.5334965 C264.20659,67.9852864 265.04659,66.5193875 265.77109,65.1586249 C267.36259,62.1712553 268.99759,58.9886327 268.81309,55.6092553 C268.66009,52.8096288 267.26959,50.2458078 265.86109,47.8231696 C265.55809,47.3019946 265.23709,46.7673019 264.74509,46.4218545 C264.04609,45.9292163 263.10259,45.9066872 262.28509,46.1560101 C261.46909,46.4053331 260.74909,46.8934654 260.04409,47.3755899 C259.35109,47.8487027 258.65809,48.3218156 257.96659,48.7934265 C257.29309,49.2530218 256.59109,49.744158 256.22659,50.4756054 C255.56659,51.7958156 256.48309,52.3530374 257.25409,53.1520724 C257.64559,53.5590996 256.95409,62.2358389 259.79359,56.8438545" id="Fill-126" fill="#072042"></path>
                <path d="M230.145007,63.6999066 C229.267507,63.6999066 228.550507,64.0318366 228.124507,64.6341167 C227.625007,65.344537 227.560507,66.3808794 227.949007,67.4757977 C228.736507,69.6866615 231.072007,71.4859922 233.158507,71.4859922 C234.036007,71.4859922 234.753007,71.1540623 235.177507,70.5517821 C235.677007,69.8428638 235.741507,68.8065214 235.353007,67.7101012 C234.567007,65.4992374 232.231507,63.6999066 230.145007,63.6999066 M233.158507,72.1858988 C230.800507,72.1858988 228.168007,70.1777977 227.292007,67.7101012 C226.825507,66.3974008 226.921507,65.1282568 227.554507,64.2300934 C228.114007,63.4370661 229.033507,63 230.145007,63 C232.503007,63 235.135507,65.0081012 236.011507,67.4757977 C236.478007,68.7884981 236.382007,70.057642 235.749007,70.9558054 C235.189507,71.7488327 234.270007,72.1858988 233.158507,72.1858988" id="Fill-128" fill="#052E47"></path>
                <path d="M242.145007,63.6999066 C241.267507,63.6999066 240.550507,64.0318366 240.126007,64.6341167 C239.625007,65.344537 239.560507,66.3808794 239.950507,67.4757977 C240.736507,69.6866615 243.072007,71.4859922 245.158507,71.4859922 C246.036007,71.4859922 246.753007,71.1540623 247.177507,70.5517821 C247.678507,69.8428638 247.741507,68.8065214 247.353007,67.7101012 C246.567007,65.4992374 244.231507,63.6999066 242.145007,63.6999066 M245.158507,72.1858988 C242.800507,72.1858988 240.168007,70.1777977 239.292007,67.7101012 C238.825507,66.3974008 238.921507,65.1282568 239.554507,64.2300934 C240.114007,63.4370661 241.033507,63 242.145007,63 C244.503007,63 247.135507,65.0081012 248.011507,67.4757977 C248.478007,68.7884981 248.382007,70.057642 247.749007,70.9558054 C247.189507,71.7488327 246.270007,72.1858988 245.158507,72.1858988" id="Fill-130" fill="#052E47"></path>
                <path d="M310.595508,29.5707826 C310.780008,32.3749149 312.316008,35.1655297 311.542008,37.8675297 C310.909008,40.0828994 308.846508,41.664448 308.210508,43.8783157 C307.487508,46.3910706 308.761008,48.9999499 309.997008,51.3039344 C311.029008,53.2309305 312.475008,55.4207671 314.659008,55.4312807 C315.614508,55.4357865 316.508508,54.9972184 317.362008,54.567662 C319.441008,53.5238099 321.520008,52.4799577 323.599008,51.4361056 C324.497508,50.9855219 325.409508,50.5244247 326.134008,49.8290239 C327.215508,48.7926815 327.776508,47.3418021 328.286508,45.9344791 C329.887008,41.5232651 331.318008,36.9032807 330.949008,32.2277243 C330.580008,27.549164 328.025508,22.7684713 323.672508,21.0337243 C321.235008,20.0619655 314.107008,19.1953429 312.014508,21.2845492 C311.081508,22.2157554 311.548008,23.2040356 311.429508,24.3890706 C311.252508,26.168876 310.474008,27.7308994 310.595508,29.5707826" id="Fill-132" fill="#524F63"></path>
                <path d="M315.7305,44 L313.6065,44.5812529 C304.779,50.3352062 299.613,58.3315642 298.5,68.8196498 L294,141.794677 L300.7665,138.763751 L315.7305,44 Z" id="Fill-134" fill="#FFBDA1"></path>
                <path d="M360.528068,43.4802235 L324.478568,42.0098188 C321.432068,41.8851574 316.068068,42.9725659 313.147568,43.8497021 L308.554568,45.9959823 L316.642568,84.6635698 C309.277568,97.1657644 305.599568,111.500332 306.034568,126.007624 L310.314068,178.734924 L350.724068,178.734924 L355.870568,123.120885 C356.305568,111.734636 354.205568,100.391943 349.723568,89.9188772 L347.524568,84.7822235 L360.528068,43.4802235 Z" id="Fill-136" fill="#FFD474"></path>
                <g id="Group-141" transform="translate(315.000000, 37.000000)" fill="#E9B855">
                    <path d="M2.1905,21.974965 C3.167,23.8178521 4.5365,25.4970272 6.329,26.5589027 C8.732,27.984249 11.7155,28.1840078 14.447,27.6057588 C17.1815,27.0305136 19.709,25.7388405 22.118,24.3225058 C26.462,21.7752062 30.59,18.7367704 33.7505,14.8121868 C35.9705,12.0546148 37.694,8.12552529 35.8895,5.07657588 C34.7345,3.12404669 32.4545,2.15679377 30.263,1.56803113 C28.394,1.06487938 26.1785,0.812552529 23.8115,0.812552529 C11.351,0.812552529 -5.3215,7.79359533 2.1905,21.974965" id="Fill-139"></path>
                </g>
                <path d="M344.48085,24.2995237 C344.48085,33.8924498 334.26285,46.9203253 324.68235,46.9203253 C315.10185,46.9203253 309.78285,33.8924498 309.78285,24.2995237 C309.78285,14.7050957 317.54985,6.92802179 327.13185,6.92802179 C336.71235,6.92802179 344.48085,14.7050957 344.48085,24.2995237" id="Fill-142" fill="#FFBDA1"></path>
                <path d="M359.9964,43.1333198 L385.0014,75.7690942 C387.6219,79.1890241 386.7069,84.128923 383.0334,86.3788374 L353.8014,104.286534 L350.1924,98.6422226 L370.2459,82.5443704 C371.7039,81.3728529 372.0114,79.274635 370.9509,77.7351409 L355.7409,56.1551875 L359.9964,43.1333198 Z" id="Fill-144" fill="#FFBDA1"></path>
                <path d="M279.7911,144.701635 L295.4901,144.701635 C298.0041,144.701635 300.0876,142.753612 300.2631,140.243861 L300.3876,138.45204 L279.7911,144.701635 Z" id="Fill-146" fill="#EEBCC5"></path>
                <path d="M322.4577,35.9792529 C322.2267,35.3995019 326.6037,47.4421012 326.6037,47.4421012 C326.6037,47.4421012 327.5907,52.3835019 331.7352,51.1984669 C335.8812,50.01193 333.3147,32.421144 332.7222,32.2243891 C332.1297,32.0261323 322.8522,36.9675331 322.4577,35.9792529" id="Fill-148" fill="#FFBDA1"></path>
                <path d="M332.7489,22.0165665 C324.7179,26.911407 316.2684,31.9429245 306.8844,32.5166677 C308.9964,29.8927689 308.5719,26.1424109 308.9604,22.7975782 C309.5934,17.3199829 312.8259,12.2013525 317.4969,9.28006848 C322.1664,6.35878444 328.1784,5.69492451 333.3714,7.52729805 C335.3109,8.21068327 337.1934,9.2740607 338.3904,10.947228 C341.8419,15.7744809 336.4779,19.742621 332.7489,22.0165665" id="Fill-150" fill="#072042"></path>
                <path d="M332.0208,41.299144 C332.5563,43.8809883 334.1928,46.1684514 334.4883,48.7878444 C334.6773,50.4895486 334.2873,52.1942568 333.8973,53.8599144 C333.4263,55.8740233 332.9568,57.8866304 332.4858,59.8992374 C335.2788,59.3435175 337.8243,57.8806226 340.0518,56.103821 C348.0888,49.6950195 352.2393,38.7428327 350.4738,28.6092062 C349.9713,25.7164591 349.0293,22.9198366 347.9973,20.1727782 C347.2038,18.0535331 346.3323,15.9192685 344.9088,14.1619922 C343.4838,12.404716 341.4108,11.0484591 339.1503,10.9898833 C336.4488,10.9207938 333.9918,12.7036031 332.4093,14.8949416 C331.3293,16.3908794 330.5388,18.1691829 330.5748,20.013572 C330.6123,21.8579611 331.2543,28.1330895 332.9418,28.8720467 C335.0793,27.5758677 338.2773,28.7233541 339.1053,31.0844125 C340.4103,34.8092374 337.0803,35.5226615 334.8588,36.7978132 C332.0973,38.3853696 331.4223,38.4154086 332.0208,41.299144" id="Fill-152" fill="#072042"></path>
                <path d="M350.4501,29.9735735 C352.1526,31.2547331 354.0936,32.2340016 355.5921,33.7494646 C357.0906,35.2634257 358.0866,37.5614023 357.2931,39.5394646 C356.7936,40.7845774 355.6971,41.6647175 354.7506,42.615449 C353.8041,43.5661805 352.9266,44.7902661 353.0796,46.1239938 C353.1801,47.0071377 353.7156,47.7686241 354.2046,48.5090833 C355.4811,50.4435891 356.5851,52.7115268 356.2056,55.0004918 C355.9011,56.843379 354.6186,58.4519626 352.9836,59.35313 C351.3486,60.2542973 349.3971,60.4870988 347.5491,60.2182506 C346.4766,60.0620482 345.4161,59.7421339 344.3331,59.7901961 C341.4771,59.9133556 339.2301,62.4997058 336.3891,62.8331377 C334.7796,63.0223829 333.0951,62.4110911 331.9806,61.2335658 C330.8646,60.0560405 330.3456,58.3393167 330.6186,56.7397447 C331.0671,54.1203518 333.3561,52.2804685 335.4636,50.6643751 C337.5681,49.0482817 339.8196,47.1242895 340.1301,44.4853712 C340.3626,42.5163206 339.4356,40.5457681 339.6771,38.5782195 C340.0251,35.7575658 342.6426,33.6908887 343.2741,30.9182973 C343.6326,29.3442584 343.0581,25.3626008 345.5256,25.412165 C347.4111,25.4512156 349.0521,28.9207097 350.4501,29.9735735" id="Fill-154" fill="#072042"></path>
                <path d="M329.73285,26.8266973 C329.22435,27.7804327 328.57485,28.6500591 327.92835,29.5166817 C327.01785,30.7377634 326.10585,31.9588451 325.19535,33.1784249 C325.85385,30.8338879 326.07435,28.3661914 325.84035,25.9405494 C325.80585,25.5710708 325.76085,25.1925805 325.84935,24.8306117 C326.01735,24.1457245 326.62335,23.6711097 327.20985,23.2821058 C328.04685,22.726386 330.19935,20.9315611 331.04985,22.0850553 C331.71885,22.9922304 330.18285,25.9841058 329.73285,26.8266973" id="Fill-156" fill="#072042"></path>
                <polygon id="Fill-158" fill="#524F63" points="350.88225 93.3332957 349.23075 94.8021984 354.96975 101.517397"></polygon>
                <path d="M472.7733,148.694107 L469.0728,76.4880755 C469.0728,76.4880755 450.5328,72.5755074 445.0143,72.5755074 C442.0098,72.5755074 436.8738,74.0038576 432.8208,75.3045424 C429.0138,76.5271261 425.8503,79.2186125 423.9993,82.7692117 L393.5943,141.124301 L412.2768,142.905609 L418.5033,135.778877 L415.3368,130.969647 L426.6948,104.146402 L426.5103,149.586262 L472.7733,148.694107 Z" id="Fill-160" fill="#FFD474"></path>
                <path d="M470.29335,55.5888039 C470.29335,65.4535821 462.30735,73.451442 452.45385,73.451442 C447.00285,73.451442 443.21985,67.7830996 439.94835,63.9230996 C437.30835,60.8080646 435.22785,59.9264226 435.22785,55.5227183 C435.22785,45.6579401 442.60335,37.7276677 452.45385,37.7276677 C462.30735,37.7276677 470.29335,45.7240257 470.29335,55.5888039" id="Fill-162" fill="#FFBDA1"></path>
                <polygon id="Fill-164" fill="#0E2C58" points="424.73235 144.686916 362.45385 144.686916 349.23135 94.8012973 411.50985 94.8012973"></polygon>
                <polygon id="Fill-166" fill="#FFFFFF" points="424.73235 144.686916 364.39785 144.686916 350.88285 93.3338965 411.92085 94.8012973"></polygon>
                <polygon id="Fill-168" fill="#524F63" points="362.9595 144.687066 405.6585 144.687066 405.6585 141.071883 362.9595 141.071883"></polygon>
                <g id="Group-173" transform="translate(426.000000, 87.000000)" fill="#E9B855">
                    <path d="M39.4515,0.373984436 L8.5215,32.8775875 C8.5215,32.8775875 3.909,44.9337043 0.5475,54.4305058 L0.5115,63.3490584 L32.583,62.7302568 L46.2553711,57.3022461 L45.5535,38.6300389 L43.578,0.124661479 L39.4515,0.373984436 Z" id="Fill-171"></path>
                </g>
                <polygon id="Fill-174" fill="#84B4FE" points="408.6473 132.998285 375.4133 132.998285 367.9673 104.710643 401.5898 105.518689"></polygon>
                <path d="M418.10435,158.295253 L374.15135,169.490755 L397.66985,260.790647 L405.629883,258.780881 L397.66985,177.982755 L436.99685,165.629253 L414.24935,178.754755 L411.491455,259.230588 L419.13501,258.780881 C419.13501,258.780881 432.85082,186.085569 434.77832,186.085569 C436.70582,186.085569 477.09335,158.681253 477.09335,158.681253 L418.10435,158.295253 Z" id="Fill-176" fill="#214A81"></path>
                <path d="M374.161621,268.844358 L404.669434,268.844358 L405.673,258 L376.502437,264.647049 C374.761671,265.043715 373.672063,266.776445 374.068728,268.517211 C374.093931,268.627814 374.124938,268.737014 374.161621,268.844358 Z" id="Fill-178" fill="#0E2C58"></path>
                <path d="M441.7265,79.9615844 C442.0025,83.4235689 442.6505,86.8555144 443.6555,90.1793198 C443.879,90.9122693 444.146,91.6827673 444.749,92.1543782 C445.985,93.1201292 447.779,92.3075767 449.066,91.4094132 C451.3085,89.842884 453.3935,88.0330397 455.138,85.9228062 C456.2585,84.5665494 457.2545,83.0420747 457.598,81.3163393 C457.943,79.5906039 457.5245,77.630565 456.1955,76.4815767 C454.1375,74.7047751 449.711,74.7678568 447.1235,74.707779 C443.4815,74.62367 441.422,76.1301214 441.7265,79.9615844" id="Fill-180" fill="#EFF2F7"></path>
                <polygon id="Fill-182" fill="#0E2C58" points="393.962158 268.844358 404.436035 268.844358 417.089844 268.844358 417.852783 258.732053 411.907471 259.055071 411.55085 259.055071 395.251709 265.532346"></polygon>
                <path d="M446.24105,64.4389774 L444.92105,79.4944794 C444.92105,79.4944794 445.97705,85.8341914 449.67005,84.7783237 C453.36305,83.7209541 453.89105,80.8161914 453.89105,80.8161914 L455.47355,62.8544249 L446.24105,64.4389774 Z" id="Fill-184" fill="#EEBCC5"></path>
                <path d="M459.59615,49.6454148 C462.40415,49.5327689 465.29315,49.337516 467.82515,48.1179362 C470.35865,46.8968545 472.47815,44.4051268 472.43165,41.5904809 C472.38515,38.777337 469.48565,36.1264031 466.81265,36.9960296 C466.20215,37.1927844 465.64565,37.5457416 465.02165,37.6929323 C464.04965,37.9197261 463.04165,37.6238428 462.08465,37.341477 C454.87265,35.2117183 446.80265,33.7938817 440.06615,37.1447222 C438.81515,37.7665276 437.59265,38.5956016 436.93565,39.8302008 C436.42265,40.7914459 436.30115,41.9088934 436.20215,42.9932981 C435.93665,45.9115782 435.75965,48.8358661 435.67565,51.7646599 C437.62565,50.7057883 439.56365,49.4486599 441.59015,48.5519984 C443.57015,47.6763642 444.84215,48.5414848 446.94965,48.9800529 C451.10015,49.8436716 455.37965,49.8136327 459.59615,49.6454148" id="Fill-186" fill="#072042"></path>
                <path d="M442.84415,44.8696786 C441.00665,44.5317409 439.06715,45.1280132 437.63315,46.319056 C436.29365,48.5734763 435.42965,51.1418031 435.19265,53.8963712 C435.36515,54.866628 435.57815,55.8428926 435.55415,56.7665891 C435.53765,57.3538498 435.78065,58.2520132 436.15865,59.2568148 C437.18315,60.8038187 438.82265,61.8506747 440.44715,63.7671572 C440.51315,63.8452584 440.58065,63.9278654 440.64815,64.0074685 C442.37615,61.0200988 445.18865,54.20427 445.71365,53.5193829 C446.51915,52.4710249 449.11265,49.3199432 448.64465,47.9246358 C448.19615,46.5833984 444.12365,45.1039821 442.84415,44.8696786" id="Fill-188" fill="#072042"></path>
                <path d="M442.86605,52.1455533 C442.72805,51.9412887 442.57955,51.7340202 442.36505,51.6108607 C442.10255,51.4591642 441.78455,51.4561603 441.48305,51.4561603 C440.31005,51.4561603 438.96005,51.5402693 438.25355,52.4789852 C437.95505,52.8754988 437.82305,53.3726428 437.72705,53.862277 C437.50055,55.0262848 437.44505,56.2263393 437.56505,57.4068685 C437.74805,59.2242226 438.62105,61.2638646 440.39705,61.6738957 C441.45605,61.9187128 442.58855,61.4876545 443.39255,60.756207 C446.18255,58.2149152 444.69305,54.8430475 442.86605,52.1455533" id="Fill-190" fill="#FFBDA1"></path>
                <path d="M465.41585,61.4805953 C466.32935,61.2673191 467.28485,61.076572 468.19835,61.2928521 C469.11185,61.5076304 469.97135,62.2375759 470.03135,63.1762918 C470.06135,63.6343852 469.90385,64.0789611 469.82735,64.5325486 C469.59335,65.9368677 470.15435,67.3366809 470.64335,68.6749144 C471.71135,71.5977004 472.41635,75.0882218 470.64485,77.646035 C468.97985,80.0521518 465.70235,80.7205175 462.78185,80.5868444 C454.11635,80.1903307 446.00885,73.9842918 443.35085,65.7160817 C442.42385,62.8323463 442.12535,59.6632412 443.06435,56.7855136 C443.34935,55.9098794 444.09335,54.9050778 444.96035,55.2084708 C445.46285,58.5608132 447.64985,61.6142685 450.65885,63.1672802 C455.98085,65.9128366 460.29035,62.676144 465.41585,61.4805953" id="Fill-192" fill="#072042"></path>
                <path d="M351.38225,93.1776537 L364.90025,144.530673 L425.23175,144.530673 L412.42025,94.6465564 L351.38225,93.1776537 Z M353.34275,94.7276615 L411.25025,96.119965 L423.29675,143.028728 L366.05525,143.028728 L353.34275,94.7276615 Z" id="Fill-194" fill="#524F63"></path>
                <path d="M449.10335,144.531274 L363.45935,144.531274 L363.45935,140.916091 L449.10335,140.916091 C450.09935,140.916091 450.90785,141.72564 450.90785,142.724433 C450.90785,143.721725 450.09935,144.531274 449.10335,144.531274" id="Fill-196" fill="#555C6A"></path>
                <path d="M405.7514,144.531274 L363.4604,144.531274 L363.4604,140.916091 L405.7514,140.916091 C406.7489,140.916091 407.5574,141.72564 407.5574,142.724433 C407.5574,143.721725 406.7489,144.531274 405.7514,144.531274" id="Fill-198" fill="#84B4FE"></path>
                <path d="M469.5731,76.332884 L453.9971,117.564293 L414.2726,122.858651 L415.8371,130.814456 L466.6721,129.153304 L480.4031,92.9023471 C481.0796,91.1150319 481.2146,89.1429774 480.6521,87.3181136 C479.3831,83.2132965 476.4791,79.7468062 472.5461,77.8032887 L469.5731,76.332884 Z" id="Fill-200" fill="#FFD474"></path>
                <path d="M414.2723,122.858651 L392.8478,111.398806 C392.8478,111.398806 391.6958,113.106518 393.3893,114.519849 C395.0828,115.934682 400.5068,119.949382 400.5068,119.949382 L400.5068,123.071927 C402.2963,128.929514 407.8193,131.696098 413.9003,131.02623 L415.8368,130.814456 L414.2723,122.858651 Z" id="Fill-202" fill="#FFBDA1"></path>
                <path d="M501.55655,144.44326 L475.96955,144.44326 C475.96955,144.44326 475.22855,142.586855 479.30855,141.844894 C483.38705,141.101431 494.88155,140.730451 494.88155,140.730451 L497.84705,137.388622 L501.92705,138.503065 L501.55655,144.44326 Z" id="Fill-204" fill="#75454F"></path>
                <path d="M522.5624,66.1390296 L495.2969,139.809458 L502.0274,141.493139 L543.9134,69.7031463 C543.9134,69.7031463 542.7134,65.051621 535.5944,60.5983525 C528.4769,56.1435821 522.5624,66.1390296 522.5624,66.1390296" id="Fill-206" fill="#E9B855"></path>
                <path d="M523.3124,32.3737922 C517.9934,24.0635276 506.9549,21.6453953 498.6554,26.9712942 C494.0039,29.9556599 491.0234,35.2860646 490.4849,40.7471385 C490.2134,43.5137222 490.1999,44.483979 491.3204,47.0402903 C492.4574,49.6356521 495.5879,53.1832475 493.7924,58.3379245 C493.3739,59.5439868 493.7219,61.3913798 495.1289,61.9531074 C496.5284,62.5118311 497.7584,60.9903603 499.1144,60.9287805 C501.6869,60.8116288 506.7434,64.7572397 508.5839,66.3102514 C509.3729,66.9771152 510.2219,67.6695121 511.2449,67.8001813 C512.1209,67.9128272 512.9954,67.5914109 513.7799,67.1828817 C517.6964,65.1477455 520.0829,61.080477 522.0389,57.1213486 C523.8704,53.416049 525.5204,49.4929673 525.7964,45.3911541 C526.6319,41.0475276 525.8834,36.3914965 523.3124,32.3737922" id="Fill-208" fill="#FFBDA1"></path>
                <path d="M522.6371,66.9126817 C523.3901,67.6876856 524.3336,68.5062459 525.4031,68.3470397 C525.8951,68.2749463 526.3301,67.9985883 526.7381,67.7132187 C527.8286,66.9532342 528.8441,66.0866117 529.7666,65.1298724 C530.3261,64.5471175 530.8796,63.8607284 530.8961,63.0541837 C530.9036,62.5990942 530.7371,62.1605261 530.5526,61.7444872 C528.7481,57.6742148 525.0476,54.5741992 523.7411,50.3161837 C523.1501,48.3876856 523.0871,46.3195066 522.4256,44.4135377 C521.7641,42.5060669 520.2296,40.6646817 518.2151,40.5850786 C517.0241,40.5370163 515.8946,41.1167673 514.9391,41.8286895 C511.8311,44.1506973 510.0401,48.1338568 510.3626,52.0043704 C510.6581,55.5159191 512.6696,58.7330864 515.5496,60.7156545 C518.3006,62.6111097 520.2701,64.478028 522.6371,66.9126817" id="Fill-210" fill="#FFBDA1"></path>
                <path d="M498.65465,26.9709938 C495.34565,29.0947447 492.90365,32.4140444 491.56415,36.1148381 C494.98565,37.8060288 503.71265,34.0451572 506.08265,32.6107992 C505.82165,38.6140755 509.08115,44.6413829 514.24715,47.7038498 C517.37915,49.5632584 521.07815,50.372807 524.21465,52.1781455 C525.03515,49.9762934 525.63965,47.7143634 525.79715,45.3908537 C526.63115,41.0472272 525.88265,36.3911961 523.31165,32.3734918 C517.99415,24.0632272 506.95415,21.6450949 498.65465,26.9709938" id="Fill-212" fill="#072042"></path>
                <path d="M508.2215,45.0940693 C507.218,43.2406685 508.217,40.688863 510.104,39.751649 C511.9895,38.814435 514.415,39.3911821 515.9195,40.8690965 C517.421,42.344007 518.0555,44.5608786 517.907,46.6636023 C517.7195,49.320544 515.789,52.1892599 513.131,52.0525829 C511.67,51.9774856 510.377,50.9907074 509.5595,49.7741315 C508.742,48.5590576 508.319,47.1262016 507.9095,45.7188786" id="Fill-214" fill="#FFBDA1"></path>
                <polygon id="Fill-216" fill="#FFFFFF" points="532.42955 57.689084 527.34305 51.7744226 519.30455 66.5610763 522.25805 75.9242047 532.92155 63.9311696"></polygon>
                <path d="M538.24355,58.495779 L585.97955,111.697693 L556.74905,137.404993 L520.94555,82.3316545 C517.28855,77.0568218 522.88355,65.4212498 526.53905,60.1479191 C529.21355,56.2864171 534.60605,55.5249307 538.24355,58.495779" id="Fill-218" fill="#FFD474"></path>
                <polygon id="Fill-220" fill="#0E2C58" points="585.069336 263.857053 571.4936 202.435329 556.7486 137.404092 585.9806 111.698294 584.3066 201.621275 591.141602 263.857053"></polygon>
                <polygon id="Fill-222" fill="#0E2C58" points="585.955566 112.213499 561.91685 264.149609 554.61335 262.963072 556.530273 136.513792"></polygon>
                <path d="M541.958496,268.844358 L560.51285,268.669114 L561.62585,262.728919 L556.06385,261.986958 L539.12141,266.737269 C538.176776,267.002124 537.52385,267.863297 537.52385,268.844358 L541.958496,268.844358 Z" id="Fill-224" fill="#0E2C58"></path>
                <path d="M590.945,262.130965 L591.74707,268.844358 L569.198,269.104498 L569.198,269.104498 C569.082821,268.069163 569.713338,267.096122 570.705377,266.778249 L588.7385,261 L590.945,262.130965 Z" id="Fill-226" fill="#0E2C58"></path>
                <path d="M492.0218,144.44326 L466.4363,144.44326 C466.4363,144.44326 465.6953,142.586855 469.7738,141.844894 C473.8538,141.101431 486.2288,140.823571 486.2288,140.823571 L488.3138,137.388622 L493.8953,139.528894 L492.0218,144.44326 Z" id="Fill-228" fill="#91616A"></path>
                <path d="M528.4511,63.2501875 L509.0381,99.9412148 L485.7626,140.651448 L493.3346,140.932312 L514.0841,112.293215 L541.5581,77.13267 C545.1011,74.3120163 546.1856,69.3946467 544.1636,65.3423977 C541.1351,59.2805455 532.9556,58.191635 528.4511,63.2501875" id="Fill-230" fill="#FFD474"></path>
                <path d="M528.3725,94.6827237 L539.525,111.837946 C538.9895,104.385292 536.372,81.2042646 536.372,81.2042646 L528.3725,94.6827237 Z" id="Fill-233" fill="#E9B855"></path>
                <path d="M327.328314,187 C326.021814,187 315.574314,191.358646 315.574314,191.358646 L323.737314,258.479089 C321.887814,259.35172 319.318314,259.863883 317.581314,260.362529 C313.571814,261.510016 309.977814,261.924553 306.436314,264.288615 C306.148314,264.494381 306.061314,265.511198 306.008814,265.861152 C305.893314,266.630148 306.937314,266.971089 307.714314,267.007136 C312.550314,267.217409 317.396814,267.239938 322.234314,267.070218 C325.321314,266.960576 327.841314,265.383533 330.587814,263.971704 C332.183814,263.151642 332.789814,260.722996 332.701314,259.586023 C332.672814,259.240576 328.561314,187 327.328314,187" id="Fill-236" fill="#FFBDA1"></path>
                <path d="M333.625799,260 C335.520575,265.9697 336.725875,268.855225 330.841375,268.855225 C321.988745,268.855225 315.363929,268.855225 306.435125,268.855225 C305.443078,268.855225 304.983929,267.635358 305.000429,266.884385 C305.009429,266.544945 305.201429,266.24005 305.403929,265.9697 C306.600929,264.370128 310.140929,261.520937 312.242429,262.214836 C313.335929,262.576805 314.118929,263.842945 315.363929,264.224439 C316.599929,264.60293 317.961929,264.623957 319.239929,264.506805 C323.898929,264.078751 329.992799,262.955829 333.625799,260 Z" id="Fill-238" fill="#0E2C58"></path>
                <path d="M353.127,259.586023 C353.0985,259.240576 348.9885,187 347.7555,187 C346.449,187 336,191.358646 336,191.358646 L344.1645,258.479089 L344.5635,263.825901 L355.223057,268.41428 L361.126621,268.087375 C363.127435,267.219374 364.127842,266.785373 364.127842,266.785373 C364.127842,266.785373 364.410719,265.972873 364.976475,264.347873 L363.322422,261.753635 L360.076084,260.528782 L353.127,259.586023 Z" id="Fill-240" fill="#FFBDA1"></path>
                <path d="M352.425316,267.345212 C355.9114,271.355494 357.327473,274.308917 360.488307,276.620622 C361.098493,277.066888 362.293569,275.963304 363.025569,275.810105 C364.011069,275.604339 364.743069,274.698666 364.992069,273.719397 C365.241069,272.743133 365.083569,271.70679 364.827069,270.730526 C364.441569,269.257117 363.831069,267.842284 363.025569,266.550611 C362.833569,266.244214 362.590569,265.915288 362.233569,265.859716 C361.774569,265.786121 361.396569,266.185638 361.018569,266.455989 C359.983569,267.202456 358.507569,267.067281 357.396069,266.439467 C356.284569,265.813156 355.464069,264.781319 354.714069,263.749483 C353.197569,261.660277 351.850569,257.822806 349.743069,256.619747 C344.053544,260.66411 346.258792,259.648584 351.090934,265.810182 L352.425316,267.345212 Z" id="Fill-242" fill="#0E2C58" transform="translate(355.739599, 266.672962) rotate(-49.000000) translate(-355.739599, -266.672962) "></path>
                <path d="M235.9765,264.993969 C235.9765,267.753043 233.743,269.98944 230.9875,269.98944 C228.2335,269.98944 226,267.753043 226,264.993969 C226,262.234895 228.2335,260 230.9875,260 C233.743,260 235.9765,262.234895 235.9765,264.993969" id="Fill-244" fill="#0E2C58"></path>
                <path d="M295.9765,264.993969 C295.9765,267.753043 293.743,269.98944 290.9875,269.98944 C288.2335,269.98944 286,267.753043 286,264.993969 C286,262.234895 288.2335,260 290.9875,260 C293.743,260 295.9765,262.234895 295.9765,264.993969" id="Fill-246" fill="#0E2C58"></path>
                <path d="M264.9765,264.993969 C264.9765,267.753043 262.743,269.98944 259.9875,269.98944 C257.2335,269.98944 255,267.753043 255,264.993969 C255,262.234895 257.2335,260 259.9875,260 C262.743,260 264.9765,262.234895 264.9765,264.993969" id="Fill-248" fill="#0E2C58"></path>
                <path d="M231,264.943829 L231,262.354475 C231,256.571984 235.6815,251.885914 241.4565,251.885914 L261.0795,251.885914 L261.0795,201" id="Stroke-250" stroke="#0E2C58" stroke-width="1.5"></path>
                <path d="M291.0795,264.943829 L291.0795,262.354475 C291.0795,256.571984 286.398,251.885914 280.623,251.885914 L261,251.885914 L261,201" id="Stroke-252" stroke="#0E2C58" stroke-width="1.5"></path>
                <path d="M260,265.057914 L260,252" id="Stroke-254" stroke="#0E2C58" stroke-width="1.5"></path>
                <polygon id="Fill-256" fill="#0E2C58" points="255 251.268732 266.0685 251.268732 266.0685 226 255 226"></polygon>
                <polygon id="Fill-258" fill="#0E2C58" points="257 229.7187 264.0845 229.7187 264.0845 201 257 201"></polygon>
                <path d="M427.9765,264.993969 C427.9765,267.753043 425.743,269.98944 422.9875,269.98944 C420.232,269.98944 418,267.753043 418,264.993969 C418,262.234895 420.232,260 422.9875,260 C425.743,260 427.9765,262.234895 427.9765,264.993969" id="Fill-259" fill="#0E2C58"></path>
                <path d="M487.9765,264.993969 C487.9765,267.753043 485.743,269.98944 482.989,269.98944 C480.2335,269.98944 478,267.753043 478,264.993969 C478,262.234895 480.2335,260 482.989,260 C485.743,260 487.9765,262.234895 487.9765,264.993969" id="Fill-260" fill="#0E2C58"></path>
                <path d="M455.9765,264.993969 C455.9765,267.753043 453.743,269.98944 450.9875,269.98944 C448.232,269.98944 446,267.753043 446,264.993969 C446,262.234895 448.232,260 450.9875,260 C453.743,260 455.9765,262.234895 455.9765,264.993969" id="Fill-261" fill="#0E2C58"></path>
                <path d="M423,264.943829 L423,262.354475 C423,256.571984 427.6815,251.885914 433.4565,251.885914 L453.0795,251.885914 L453.0795,201" id="Stroke-262" stroke="#0E2C58" stroke-width="1.5"></path>
                <path d="M482.0795,264.943829 L482.0795,262.354475 C482.0795,256.571984 477.398,251.885914 471.623,251.885914 L452,251.885914 L452,201" id="Stroke-263" stroke="#0E2C58" stroke-width="1.5"></path>
                <path d="M451,265.057914 L451,252" id="Stroke-264" stroke="#0E2C58" stroke-width="1.5"></path>
                <polygon id="Fill-265" fill="#0E2C58" points="446 251.268732 457.07 251.268732 457.07 226 446 226"></polygon>
                <polygon id="Fill-266" fill="#0E2C58" points="448 229.7187 455.0845 229.7187 455.0845 201 448 201"></polygon>
                <polygon id="Fill-267" fill="#C1DDF7" points="151 204.340389 493.522 204.340389 493.522 150 151 150"></polygon>
                <polygon id="Fill-268" fill="#214A81" points="152 269.539455 157.766 269.539455 157.766 151 152 151"></polygon>
                <polygon id="Fill-269" fill="#214A81" points="492 269.539455 497.7645 269.539455 497.7645 151 492 151"></polygon>
                <g id="Group-273" transform="translate(150.000000, 151.000000)">
                    <mask id="mask-8" fill="white">
                        <use xlink:href="#path-7"></use>
                    </mask>
                    <g id="Clip-272"></g>
                    <polygon id="Fill-271" fill="#71ADDB" opacity="0.910546875" mask="url(#mask-8)" points="0.261 0.0633774319 326.839874 30.3916183 342 31.7994864 342 0.0633774319"></polygon>
                </g>
                <polygon id="Fill-274" fill="#214A81" points="137 153.235463 509.423 153.235463 509.423 144 137 144"></polygon>
            </g>
        </g>
    </g>
</svg>